<svg width="151" height="150" viewBox="0 0 151 150" version="1.1" xmlns="http://www.w3.org/2000/svg" xmlns:xlink="http://www.w3.org/1999/xlink">
<title>Group</title>
<desc>Created using Figma</desc>
<g id="Canvas" transform="translate(-5401 -3398)">
<g id="Group">
<g id="Group">
<g id="Group">
<g id="Vector">
<use xlink:href="#path0_fill" transform="translate(5401 3541.27)" fill="#B2B2B2"/>
</g>
</g>
<g id="Vector">
<use xlink:href="#path1_fill" transform="translate(5418.77 3477.39)" fill="#CE9C5F"/>
</g>
<g id="Vector">
<use xlink:href="#path2_fill" transform="translate(5449.5 3440.43)" fill="#F6CAA7"/>
</g>
<g id="Vector">
<use xlink:href="#path2_fill" transform="translate(5449.5 3440.43)" fill="#B2B2B2"/>
</g>
<g id="Vector">
<use xlink:href="#path3_fill" transform="translate(5482 3429.45)" fill="#505050"/>
</g>
<g id="Vector">
<use xlink:href="#path4_fill" transform="translate(5456.31 3421.7)" fill="#737373"/>
</g>
<g id="Vector">
<use xlink:href="#path4_fill" transform="translate(5456.31 3421.7)" fill="#737373"/>
</g>
<g id="Vector">
<use xlink:href="#path5_fill" transform="translate(5474.87 3425.63)" fill="#505050"/>
</g>
<g id="Vector">
<use xlink:href="#path6_fill" transform="translate(5477.38 3401.93)" fill="#737373"/>
</g>
<g id="Vector">
<use xlink:href="#path7_fill" transform="translate(5536.43 3402.26)" fill="#69AFE5"/>
</g>
<g id="Vector">
<use xlink:href="#path8_fill" transform="translate(5536.43 3402.26)" fill="#2F60E0"/>
</g>
<g id="Vector">
<use xlink:href="#path9_fill" transform="translate(5530.55 3398)" fill="#737373"/>
</g>
<g id="Vector">
<use xlink:href="#path10_fill" transform="translate(5528.03 3401.93)" fill="#505050"/>
</g>
<g id="Group">
<g id="Vector">
<use xlink:href="#path11_fill" transform="translate(5478.36 3426.5)" fill="#737373"/>
</g>
</g>
<g id="Vector">
<use xlink:href="#path12_fill" transform="translate(5478.36 3408.7)" fill="#8F8F8F"/>
</g>
<g id="Vector">
<use xlink:href="#path13_fill" transform="translate(5530.22 3410.01)" fill="#737373"/>
</g>
<g id="Vector">
<use xlink:href="#path14_fill" transform="translate(5532.84 3404.55)" fill="#8F8F8F"/>
</g>
<g id="Vector">
<use xlink:href="#path15_fill" transform="translate(5532.84 3406.73)" fill="#737373"/>
</g>
<g id="Vector">
<use xlink:href="#path16_fill" transform="translate(5445.65 3438.5)" fill="#CE9C5F"/>
</g>
<g id="Vector">
<use xlink:href="#path17_fill" transform="translate(5446.27 3444.81)" fill="#CE9C5F"/>
</g>
<g id="Vector">
<use xlink:href="#path18_fill" transform="translate(5427.28 3492.13)" fill="#CE9C5F"/>
</g>
<g id="Vector">
<use xlink:href="#path19_fill" transform="translate(5445.84 3440.59)" fill="#737373"/>
</g>
<g id="Vector">
<use xlink:href="#path20_fill" transform="translate(5444.85 3442.01)" fill="#737373"/>
</g>
<g id="Vector">
<use xlink:href="#path21_fill" transform="translate(5449.22 3435.13)" fill="#737373"/>
</g>
<g id="Vector">
<use xlink:href="#path22_fill" transform="translate(5449.76 3438.73)" fill="#8F8F8F"/>
</g>
<g id="Vector">
<use xlink:href="#path23_fill" transform="translate(5448.78 3440.59)" fill="#505050"/>
</g>
<g id="Vector">
<use xlink:href="#path24_fill" transform="translate(5453.7 3436.22)" fill="#505050"/>
</g>
<g id="Vector">
<use xlink:href="#path25_fill" transform="translate(5460.46 3430.11)" fill="#8F8F8F"/>
</g>
<g id="Vector">
<use xlink:href="#path26_fill" transform="translate(5476.29 3431.2)" fill="#737373"/>
</g>
<g id="Vector">
<use xlink:href="#path27_fill" transform="translate(5457.08 3435.46)" fill="#8F8F8F"/>
</g>
<g id="Vector">
<use xlink:href="#path28_fill" transform="translate(5456.97 3436.66)" fill="#737373"/>
</g>
<g id="Vector">
<use xlink:href="#path29_fill" transform="translate(5445.73 3443.12)" fill="#CE9C5F"/>
</g>
<g id="Vector">
<use xlink:href="#path30_fill" transform="translate(5437.32 3486.34)" fill="#2139B5"/>
</g>
<g id="Vector">
<use xlink:href="#path31_fill" transform="translate(5436.78 3491.37)" fill="#002050"/>
</g>
<g id="Vector">
<use xlink:href="#path32_fill" transform="translate(5427.5 3487)" fill="#002050"/>
</g>
<g id="Vector">
<use xlink:href="#path33_fill" transform="translate(5425.85 3486.76)" fill="#002050"/>
</g>
<g id="Vector">
<use xlink:href="#path34_fill" transform="translate(5425.42 3491.59)" fill="#002050"/>
</g>
<g id="Vector">
<use xlink:href="#path35_fill" transform="translate(5426.41 3535.38)" fill="#001129"/>
</g>
<g id="Vector">
<use xlink:href="#path36_fill" transform="translate(5416.36 3538.76)" fill="#282828"/>
</g>
<g id="Vector">
<use xlink:href="#path37_fill" transform="translate(5425.42 3509.82)" fill="#002050"/>
</g>
<g id="Vector">
<use xlink:href="#path38_fill" transform="translate(5424.55 3513.97)" fill="#002050"/>
</g>
<g id="Vector">
<use xlink:href="#path39_fill" transform="translate(5436.88 3535.06)" fill="#001129"/>
</g>
<g id="Vector">
<use xlink:href="#path40_fill" transform="translate(5436.41 3538.87)" fill="#282828"/>
</g>
<g id="Vector">
<use xlink:href="#path41_fill" transform="translate(5436.78 3509.49)" fill="#002050"/>
</g>
<g id="Vector">
<use xlink:href="#path42_fill" transform="translate(5436.34 3513.75)" fill="#002050"/>
</g>
<g id="Vector">
<use xlink:href="#path43_fill" transform="translate(5435.57 3450.74)" fill="#CE9C5F"/>
</g>
<g id="Vector">
<use xlink:href="#path44_fill" transform="translate(5435.47 3449.55)" fill="#BA8C57"/>
</g>
<g id="Vector">
<use xlink:href="#path45_fill" transform="translate(5430.77 3439.71)" fill="#CE9C5F"/>
</g>
<g id="Vector">
<use xlink:href="#path46_fill" transform="translate(5430.19 3435.94)" fill="#301D19"/>
</g>
<g id="Vector">
<use xlink:href="#path47_fill" transform="translate(5441.66 3443.4)"/>
</g>
<g id="Vector">
<use xlink:href="#path48_fill" transform="translate(5425.75 3490.5)" fill="#001129"/>
</g>
<g id="Vector">
<use xlink:href="#path49_fill" transform="translate(5437.32 3481.22)" fill="#004880"/>
</g>
<g id="Vector">
<use xlink:href="#path50_fill" transform="translate(5436.78 3487.66)" fill="#004880"/>
</g>
<g id="Vector">
<use xlink:href="#path51_fill" transform="translate(5441.91 3448.02)" fill="#CB8C84"/>
</g>
<g id="Vector">
<use xlink:href="#path52_fill" transform="translate(5441.91 3448.02)" fill="#FFFFFF"/>
</g>
<g id="Vector">
<use xlink:href="#path53_fill" transform="translate(5420.72 3455.56)" fill="#9C2801"/>
</g>
<g id="Vector">
<use xlink:href="#path54_fill" transform="translate(5433.61 3455.36)" fill="#E24F01"/>
</g>
<g id="Vector">
<use xlink:href="#path55_fill" transform="translate(5453.99 3459.2)" fill="#E24F01"/>
</g>
<g id="Vector">
<use xlink:href="#path56_fill" transform="translate(5416.5 3460.96)" fill="#CE9C5F"/>
</g>
<g id="Vector">
<use xlink:href="#path57_fill" transform="translate(5420.5 3460.47)" fill="#E24F01"/>
</g>
</g>
</g>
</g>
<defs>
<path id="path0_fill" d="M 147.621 6.73013L 3.5394 6.73013C 1.76522 6.73013 0.167128 5.43439 0.0131888 3.66686C -0.160685 1.67229 1.4075 -2.97418e-06 3.36552 -2.97418e-06L 147.447 -2.97418e-06C 149.221 -2.97418e-06 150.819 1.29575 150.973 3.06329C 151.146 5.05785 149.579 6.73013 147.621 6.73013Z"/>
<path id="path1_fill" d="M 0.653412 7.20525C 0.435239 10.3782 0.871584 11.3605 2.17841 13.8678C 3.06107 15.2865 3.82523 15.5036 3.82523 14.632C 4.14972 16.2644 5.89732 16.8226 5.67914 15.611C 5.89732 16.0473 6.55073 16.5933 7.09782 16.2644C 7.53417 15.9399 6.98707 15.1747 6.7689 14.8502C 7.31599 14.8502 7.85866 14.3031 7.20525 13.2144C 6.65815 12.3395 6.65815 11.5787 6.65815 11.5787C 7.64048 12.3395 8.40464 12.3395 8.62282 11.6861C 7.75123 10.8145 6.98707 9.06027 6.00474 7.75234C 5.78657 7.53416 5.56839 7.31599 5.35133 7.09893C 4.58717 5.28086e-07 4.58717 -3.92051e-06 4.58717 -3.92051e-06C 5.28086e-07 2.61807 4.0557e-07 2.61808 4.0557e-07 2.61808L 0.653412 7.20525Z"/>
<path id="path2_fill" d="M 0.808776 0.2682C 0.916201 0.486373 0.808777 0.704545 0.590604 0.815293C 0.372431 0.92604 0.154259 0.815294 0.0435112 0.597121C -0.0672365 0.378948 0.0435097 0.0433827 0.261683 0.0433827C 0.480963 -0.0673651 0.808776 0.0433817 0.808776 0.2682Z"/>
<path id="path3_fill" d="M 47.3967 113.401C 30.3737 59.9998 29.3371 57.2178 29.3371 57.2178C 29.8797 56.9996 29.8797 56.9996 29.8797 56.9996C 25.1818 44.3312 25.1818 44.3312 25.1818 44.3312C 25.1818 9.06027 25.1818 9.06027 25.1818 9.06027C 27.0357 8.40686 28.3547 6.66369 28.3547 4.69792C 28.3547 2.07209 26.2749 1.85886e-07 23.6568 1.85886e-07C 21.0387 1.85886e-07 18.9667 2.07209 18.9667 4.69792C 18.9667 6.66258 20.2779 8.40575 22.1318 9.06027C 22.1318 44.3312 22.1318 44.3312 22.1318 44.3312C 17.4306 56.9996 17.4306 56.9996 17.4306 56.9996C 17.9888 57.2178 17.9888 57.2178 17.9888 57.2178C 0.95465 110.619 0.0265907 113.993 0.0265907 113.993C -0.0808346 114.429 0.137334 115.092 0.679998 115.202C 1.22709 115.42 1.77308 115.202 1.99125 114.647C 18.9091 61.2446 19.8382 57.8723 19.8382 57.8723C 20.3853 58.1016 20.3853 58.1016 20.3853 58.1016C 22.1318 53.5111 22.1318 53.5111 22.1318 53.5111C 22.1318 59.0839 22.1318 59.0839 22.1318 59.0839C 22.6745 59.0839 22.6745 59.0839 22.6745 59.0839C 22.6745 118.926 22.6745 116.711 22.6745 116.711C 22.6745 117.257 23.1108 117.693 23.6568 117.693C 24.2039 117.693 24.6392 117.256 24.6392 116.711C 24.6392 56.8689 24.6392 59.0839 24.6392 59.0839C 25.1818 59.0839 25.1818 59.0839 25.1818 59.0839C 25.1818 53.5111 25.1818 53.5111 25.1818 53.5111C 26.9283 58.1016 26.9283 58.1016 26.9283 58.1016C 27.471 57.8723 27.471 57.8723 27.471 57.8723C 44.5051 111.275 45.5417 114.056 45.5417 114.056C 45.6491 114.611 46.3025 114.828 46.7389 114.611C 47.2859 114.501 47.6149 113.838 47.3967 113.401Z"/>
<path id="path4_fill" d="M 36.0251 14.6331L 3.2726 22.7099L -1.55469e-06 12.561L 31.3272 -4.22469e-07L 36.0251 14.6331Z"/>
<path id="path5_fill" d="M 4.14418 13.9797L 7.42342 13.2144L 3.16184 -3.37975e-07L 2.02785e-06 1.2005L 4.14418 13.9797Z"/>
<path id="path6_fill" d="M 61.8969 25.0035L 5.5695 38.9865L 1.96026e-06 21.6202L 53.819 5.06963e-08L 61.8969 25.0035Z"/>
<path id="path7_fill" d="M 6.77001 21.2924C 9.93518 19.1128 11.0249 13.9764 9.38809 8.73467C 7.6416 3.48966 3.71559 5.4921e-08 4.0557e-07 5.4921e-08C 6.77001 21.2924 6.77001 21.2924 6.77001 21.2924Z"/>
<path id="path8_fill" d="M 1.96467 4.2505C 4.37232 4.2505 6.66258 5.02573 8.40575 6.33366C 6.44441 2.50733 3.17181 -2.53481e-08 4.0557e-07 -2.53481e-08C 1.30793 4.2505 1.30793 4.2505 1.30793 4.2505C 1.525 4.2505 1.74649 4.2505 1.96467 4.2505Z"/>
<path id="path9_fill" d="M 15.7118 28.7158L 9.16659 30.7989L -1.68988e-06 2.07209L 6.43445 0L 15.7118 28.7158Z"/>
<path id="path10_fill" d="M 7.96941 25.7754L 11.2498 25.0035L 3.17182 5.06963e-08L -3.98811e-06 1.31125L 5.89842 19.5481L 7.96941 25.7754Z"/>
<path id="path11_fill" d="M 0.218175 0L 3.10937e-06 0L 3.10937e-06 0.654519L 0.218175 0.654519L 0.218175 0Z"/>
<path id="path12_fill" d="M 51.4191 -4.22469e-08L 3.10937e-06 17.7938L 0.218175 18.4517L 0.871582 20.3133L 52.2906 2.51065L 51.8543 1.31014L 51.4191 -4.22469e-08Z"/>
<path id="path13_fill" d="M 1.55469e-06 -4.73165e-07L 0.436344 1.20051L 1.55469e-06 -4.73165e-07Z"/>
<path id="path14_fill" d="M 6.33366 -1.22516e-07L -8.1114e-07 2.18284L 1.30682 6.33366L 7.64159 4.15193L 6.33366 -1.22516e-07Z"/>
<path id="path15_fill" d="M -8.1114e-07 9.29432e-08L 1.30682 4.15082L -8.1114e-07 9.29432e-08Z"/>
<path id="path16_fill" d="M 8.92142 7.11503C 8.15726 4.06061 7.28567 3.29977 5.43176 1.32735C 4.2235 0.234272 3.45934 0.345021 3.56676 1.10918C 2.80593 -0.309498 1.05943 -0.309499 1.60542 0.780259C 1.2765 0.451338 0.515664 0.126849 0.0804255 0.562087C -0.248495 0.998433 0.516772 1.65184 0.841263 1.87002C 0.298599 1.98076 -0.14107 2.64193 0.841263 3.40608C 1.60542 4.0595 1.8236 4.82477 1.8236 4.82477C 0.733838 4.38842 0.0804255 4.71734 0.0804255 5.26111C 1.17018 5.91452 2.37069 7.3332 3.67751 8.20478C 4.00643 8.31553 4.2246 8.42296 4.5491 8.5337C 7.3931 14.9781 7.3931 14.9781 7.3931 14.9781C 10.8828 11.1595 10.8828 11.1595 10.8828 11.1595C 8.92142 7.11503 8.92142 7.11503 8.92142 7.11503Z"/>
<path id="path17_fill" d="M 18.0818 18.9091C 16.4604 15.8635 7.71801 -6.7595e-08 7.71801 -6.7595e-08L 3.64138 1.47405C 3.64138 1.47405 6.63932 8.49102 9.2729 14.591L 2.61807 12.2731L 1.18291e-06 22.0975L 14.8513 23.6336L 14.8513 23.6214C 15.0251 23.638 15.2167 23.6557 15.4294 23.6734C 17.1482 23.8196 19.702 21.9535 18.0818 18.9091Z"/>
<path id="path18_fill" d="M 7.09748e-07 2.40765C 0.76416 1.52499 1.85392 3.17181 2.29358 3.49741C 3.27259 4.0445 4.03675 3.71558 4.1475 3.17292C 3.16517 2.51951 2.07209 0.982334 0.874906 1.82507e-06L 7.09748e-07 2.40765Z"/>
<path id="path19_fill" d="M 4.03675 -1.62228e-06L 6.7595e-08 1.63685L 0.545986 3.49077L 4.69017 2.17952L 4.03675 -1.62228e-06Z"/>
<path id="path20_fill" d="M -1.08152e-06 0.436348C 0.764158 2.39769 0.764161 2.39769 0.764161 2.39769C 0.764161 2.50844 0.874907 2.50844 0.874907 2.50844C 1.63574 2.29026 1.63574 2.29026 1.63574 2.29026C 1.74649 2.17952 1.74649 2.17951 1.74649 2.07209C 1.09308 0.107424 1.09308 0.107426 1.09308 0.107426C 1.09308 7.75627e-07 0.982332 6.42153e-07 0.874907 6.42153e-07C 0.110748 0.218174 0.110749 0.218172 0.110749 0.218172C 0.110749 0.325597 -1.08152e-06 0.3256 -1.08152e-06 0.436348Z"/>
<path id="path21_fill" d="M 13.2155 6.22734L 2.08316 9.82443L -1.3857e-06 3.59709L 11.1357 -7.43545e-07L 13.2155 6.22734Z"/>
<path id="path22_fill" d="M 4.26157 4.73165e-07L -1.96026e-06 1.41868L -1.96026e-06 1.63685L 0.218174 2.40876L 4.59049 0.876015L 4.26157 4.73165e-07Z"/>
<path id="path23_fill" d="M 0.653413 2.50844L 1.74649 2.17952L 1.09308 -1.62228e-06L 1.11532e-06 0.436345L 0.653413 2.50844Z"/>
<path id="path24_fill" d="M 1.96134 7.31599L 5.23283 6.22734L 3.16185 5.4076e-07L -1.62228e-06 1.09308L 1.96134 7.31599Z"/>
<path id="path25_fill" d="M 15.3973 -2.53481e-07L -9.12533e-07 5.35576L 0.553738 7.09893L 16.0507 1.7476L 15.8325 1.09308L 15.3973 -2.53481e-07Z"/>
<path id="path26_fill" d="M 6.7595e-07 -7.94242e-07L 0.218172 0.653411L 6.7595e-07 -7.94242e-07Z"/>
<path id="path27_fill" d="M 3.38002 2.36583e-07L 1.14912e-06 1.19607L 1.14912e-06 1.30682L 0.547094 2.94368L 3.93376 1.74317L 3.38002 2.36583e-07Z"/>
<path id="path28_fill" d="M 0.110749 -1.96026e-06L -1.3857e-06 -1.96026e-06L 0.110749 0.110748L 0.110749 -1.96026e-06Z"/>
<path id="path29_fill" d="M 4.14418 1.07343C 3.48634 1.94502 2.17952 0.420023 1.74317 0.20185C 0.653413 -0.234496 -6.7595e-08 0.0944254 -6.7595e-08 0.638197C 1.08976 1.29161 2.17951 2.60286 3.48634 3.47444L 4.14418 1.07343Z"/>
<path id="path30_fill" d="M 9.60626 5.35524C 9.49883 8.19924 7.09893 10.4895 4.26157 10.3821C 1.41757 10.3821 1.58848e-06 7.98107 1.58848e-06 5.02632C 0.110749 2.19339 1.63574 -0.107939 4.48418 0.00391636C 7.42674 0.111342 9.60626 2.51899 9.60626 5.35524Z"/>
<path id="path31_fill" d="M 8.73135 22.4929L 3.37975e-07 22.2747L 0.543773 -2.7038e-07L 10.15 0.328917L 8.73135 22.4929Z"/>
<path id="path32_fill" d="M -5.57659e-07 15.405C -5.57659e-07 14.6409 3.81526 13.2144 8.62392 13.2144C 13.3108 13.2144 17.1371 14.6397 17.1371 15.405C 18.8836 4.22469e-06 18.8836 6.7595e-08 18.8836 6.7595e-08C 0 6.7595e-08 -5.57659e-07 6.7595e-08 -5.57659e-07 6.7595e-08L -5.57659e-07 15.405Z"/>
<path id="path33_fill" d="M 0.0150469 4.82019C -0.203126 7.77494 1.97639 10.176 4.92006 10.393C 7.76739 10.5004 11.0367 8.32093 11.2537 5.47693C 11.4719 2.64068 8.4208 0.121169 5.46605 0.0148516C 2.6298 -0.202214 0.232112 1.98726 0.0150469 4.82019Z"/>
<path id="path34_fill" d="M 9.4633e-07 22.2747L 8.62725 22.8317L 11.6783 0.657841L 0.439669 -1.82507e-06L 9.4633e-07 22.2747Z"/>
<path id="path35_fill" d="M 5.46208 6.44441L -1.68988e-08 6.11771L 0.328922 -3.85292e-06L 5.35576 0.328922L 5.46208 6.44441Z"/>
<path id="path36_fill" d="M 15.7229 6.00806C 11.0249 6.00806 11.0249 6.00806 11.0249 6.00806C 10.8068 5.35355 10.8068 5.35354 10.8068 5.35354C 9.38808 5.68025 6.00917 6.11659 4.36235 6.11659C 3.05442 6.11659 1.20051 6.00695 0.328921 5.57061C 0.218173 5.57061 1.60538e-07 5.24391 1.60538e-07 5.02574C 0.218173 3.06218 7.75234 2.29912 9.717 -2.29823e-06C 9.82443 -2.29823e-06 9.82443 -2.29823e-06 9.82443 -2.29823e-06C 10.3715 0.544876 11.0249 1.52721 12.2254 1.52721C 13.3152 1.52721 14.622 0.545983 15.1769 0.109637C 15.7229 0.654516 15.8336 5.89842 15.7229 6.00806Z"/>
<path id="path37_fill" d="M 8.63306 4.59521C 8.74049 2.18313 6.88657 0.111031 4.47781 0.00471327C 2.08122 -0.106034 0.115454 1.74789 0.00470598 4.1489C -0.102719 6.55655 1.64045 8.52232 4.04146 8.73939C 6.45022 8.84681 8.52231 6.9929 8.63306 4.59521Z"/>
<path id="path38_fill" d="M 9.49883 0.446317L 0.871585 3.78532e-06L 2.19684e-07 25.9914L 7.86309 26.9815L 9.49883 0.446317Z"/>
<path id="path39_fill" d="M 4.73165e-07 6.11438L 5.46208 6.22402L 5.68025 0.218177L 0.547094 -3.04178e-06L 4.73165e-07 6.11438Z"/>
<path id="path40_fill" d="M 0.036192 5.89842C 4.72636 6.00806 4.72636 6.00806 4.72636 6.00806C 4.95118 5.35354 4.95117 5.35354 4.95117 5.35354C 6.36985 5.68025 9.75209 6.22624 11.3889 6.22624C 12.5861 6.22624 14.44 6.22623 15.3227 5.78988C 15.5409 5.68135 15.759 5.46319 15.759 5.13538C 15.6516 3.28146 8.00671 2.40877 6.15279 0.109644C 5.93462 0.109644 5.93461 0.109644 5.93461 0.109644C 5.39195 0.54599 4.84486 1.5272 3.52696 1.5272C 2.4372 1.5272 1.2367 0.436343 0.69071 -3.37975e-06C 0.0361915 0.544875 -0.0712333 5.78878 0.036192 5.89842Z"/>
<path id="path41_fill" d="M 3.37975e-07 4.25914C 0.107426 1.85813 2.07209 -0.10321 4.47974 0.00421484C 6.88075 0.114963 8.73024 2.07631 8.62392 4.47732C 8.62392 6.88497 6.65926 8.73888 4.2505 8.62813C 1.85392 8.62813 3.37975e-07 6.55715 3.37975e-07 4.25914Z"/>
<path id="path42_fill" d="M 0.435239 -3.10937e-06L 9.05916 0.218177L 7.97051 26.2095L 7.26647e-07 26.5363L 0.435239 -3.10937e-06Z"/>
<path id="path43_fill" d="M 6.67288 6.00917C 7.10923 0.547091 7.10923 0.547092 7.10923 0.547092C 0.446649 -1.15519e-06 0.446648 -6.08355e-07 0.446648 -6.08355e-07C 0.0103025 5.35576 0.0103035 5.35576 0.0103035 5.35576C -0.100444 6.66369 0.663714 8.08126 3.17215 8.29943C 5.57205 8.5165 6.56214 7.20857 6.67288 6.00917Z"/>
<path id="path44_fill" d="M 3.21076e-07 1.30682C 1.85392 3.9249 3.70783 5.35133 6.88075 6.55184C 7.3171 1.41425 7.3171 1.41425 7.3171 1.41425C 0.111856 2.11234e-06 0.111855 1.58848e-06 0.111855 1.58848e-06L 3.21076e-07 1.30682Z"/>
<path id="path45_fill" d="M 15.2876 10.5986C 14.416 9.5088 13.7626 7.10114 13.7626 7.10114C 13.6519 6.9904 13.7626 6.77222 13.9808 6.6648C 14.6342 6.44662 14.6342 6.44663 14.6342 6.44663C 14.8524 6.33588 14.9631 6.01028 14.8524 5.89953C 13.1092 3.72001 13.1092 3.72002 13.1092 3.72002C 12.9985 3.60927 12.891 3.3911 12.7803 3.17292C 11.3616 5.28086e-07 11.3616 -1.3857e-06 11.3616 -1.3857e-06C 0.994515 2.19059 0.994515 2.19059 0.994515 2.19059C 1.31901 3.72001 1.319 3.72002 1.319 3.72002C -2.64043e-07 3.93819 -3.21076e-07 3.93819 -3.21076e-07 3.93819C -3.21076e-07 3.93819 0.328923 16.8237 14.8513 11.5798C 15.2876 11.4701 15.5047 10.9275 15.2876 10.5986Z"/>
<path id="path46_fill" d="M 2.00349 3.44419C 3.42217 2.02551 6.25399 0.607947 9.09134 0.0608532C 10.7271 -0.15732 12.3706 0.171598 12.6995 1.69659C 13.1358 4.0976 10.8345 4.53284 9.74475 4.65134C 8.21976 4.97583 8.21976 4.97584 8.21976 4.97584C 7.67267 5.08658 7.34817 5.73999 7.56635 6.28709C 9.09134 9.44893 9.09134 9.44893 9.09134 9.44893C 8.32718 9.99603 8.32718 9.99603 8.32718 9.99603C 8.10901 10.1035 8.00269 9.99603 7.89084 9.88528C 7.45449 9.34262 6.47216 8.14211 5.49426 8.79552C 4.29375 9.55968 4.94716 10.7569 5.49426 11.1921C 6.03692 11.7503 6.80219 11.8566 7.01925 12.5111C 7.12668 12.9475 7.89084 15.0184 5.71132 16.1126C 3.09325 15.1303 1.56714 13.2764 0.79191 11.6395C -0.297847 9.44893 -0.297846 6.83086 1.01008 4.65134C 1.23158 4.20503 1.56825 3.76868 2.00349 3.44419Z"/>
<path id="path47_fill" d="M 0.902168 0.354369C 0.902168 0.572542 0.794746 0.790715 0.465825 0.901462C 0.247652 0.901462 0.029478 0.790714 0.029478 0.572541C -0.0812697 0.24805 0.140227 0.0298752 0.3584 0.0298752C 0.57768 -0.0808725 0.794743 0.136196 0.902168 0.354369Z"/>
<path id="path48_fill" d="M -1.85886e-07 4.69792L 9.82332 5.57393L 11.1313 -3.10937e-06L 10.8068 5.57393L 20.7375 6.55183L 20.7375 7.20635L 10.9131 6.88076L 10.1522 5.57393L 9.60626 6.88076L -1.85886e-07 7.42342L -1.85886e-07 4.69792Z"/>
<path id="path49_fill" d="M 0.982331 0.543775C 0.982331 0.765271 0.657842 0.983439 0.439669 0.983439C 0.221496 0.983439 1.58848e-06 0.765271 1.58848e-06 0.43635C 1.58848e-06 0.218177 0.221496 -1.28431e-06 0.547095 -1.28431e-06C 0.76416 0.108531 0.982331 0.32671 0.982331 0.543775Z"/>
<path id="path50_fill" d="M 0.983441 0.439672C 0.872693 0.764163 0.654521 0.982333 0.436348 0.876015C 0.218175 0.876015 9.4633e-07 0.657845 9.4633e-07 0.439672C 9.4633e-07 0.110751 0.218172 2.02785e-07 0.542662 2.02785e-07C 0.766373 2.02785e-07 0.983441 0.221499 0.983441 0.439672Z"/>
<path id="path51_fill" d="M 3.05442 1.01393e-06C 1.58426e-06 1.20051 2.09545e-06 1.20051 2.09545e-06 1.20051C 2.09545e-06 1.20051 1.63574 1.96466 3.48966 1.20051L 3.05442 1.01393e-06Z"/>
<path id="path52_fill" d="M 3.05442 1.01393e-06C 1.58426e-06 1.20051 2.09545e-06 1.20051 2.09545e-06 1.20051C 2.09545e-06 1.20051 1.525 1.7476 3.37891 0.98233L 3.05442 1.01393e-06Z"/>
<path id="path53_fill" d="M 25.7677 41.485L 4.56834 39.8072L 6.7833 12.1202L 3.5993 13.2277L 1.68988e-08 5.89067C 1.68988e-08 5.89067 7.6139 1.73763 9.41356 0.907022C 11.2132 0.0764139 14.1137 1.92646e-06 14.1137 1.92646e-06C 14.1137 1.92646e-06 16.1138 2.84843 18.1903 2.84843C 20.2668 2.84843 22.3157 0.245862 22.3157 0.245862C 22.3157 0.245862 26.4344 0.74201 28.1676 1.51724C 29.9008 2.29248 35.1834 3.97917 35.1834 3.97917L 34.746 12.5366L 28.6549 11.8445L 25.7677 41.485Z"/>
<path id="path54_fill" d="M 8.85206 0.29016C 8.19311 1.43861 6.96935 2.2216 5.54957 2.2216C 4.03565 2.2216 2.63137 1.27692 2.01339 3.71773e-07L -3.37975e-07 0.24586C 0.765266 2.44752 3.08765 4.03343 5.54957 4.03343C 7.87748 4.03343 9.87427 2.62029 10.7326 0.605791L 8.85206 0.29016Z"/>
<path id="path55_fill" d="M -1.08152e-06 8.84099L 1.0809 -3.37975e-08L 2.99683 0.73758L 2.11196 9.03812L -1.08152e-06 8.84099Z"/>
<path id="path56_fill" d="M 2.82107 22.9381C 2.47886 20.7763 0.463255 8.74353 0.119937 6.53301C -0.223381 4.32248 0.0889279 2.74433 2.13333 1.67008C 4.09799 0.639014 5.52221 7.09748e-07 5.52221 7.09748e-07L 8.27318 6.92505L 6.40708 7.71136L 7.68401 25.4421C 7.6829 25.4432 3.45898 26.966 2.82107 22.9381Z"/>
<path id="path57_fill" d="M 1.96467 -7.77343e-07L 5.45211 7.76009L 3.53617 8.49656L 7.09748e-07 0.982333L 1.96467 -7.77343e-07Z"/>
</defs>
</svg>
